<?xml version="1.0" encoding="UTF-8"?>
<svg width="72px" height="72px" viewBox="0 0 72 72" version="1.1" xmlns="http://www.w3.org/2000/svg" xmlns:xlink="http://www.w3.org/1999/xlink">
    <!-- Generator: Sketch 39.1 (31720) - http://www.bohemiancoding.com/sketch -->
    <title>icon / canvas / white</title>
    <desc>Created with Sketch.</desc>
    <defs></defs>
    <g id="App" stroke="none" stroke-width="1" fill="none" fill-rule="evenodd">
        <g transform="translate(-252.000000, -660.000000)" id="Group-21" fill="#FAFAFA">
            <g transform="translate(0.000000, 433.000000)">
                <g id="Group-15" transform="translate(188.000000, 227.000000)">
                    <g id="Group-3" transform="translate(20.000000, 0.000000)">
                        <g id="icon-/-canvas-/-white" transform="translate(44.000000, 0.000000)">
                            <path d="M36,0 C55.88,0 72,14.32 72,32 C72,43.04 63.04,52 52,52 L44.94,52 C41.62,52 38.94,54.68 38.94,58 C38.94,59.54 39.5,60.92 40.44,61.98 C41.42,63.04 42,64.44 42,66 C42,69.32 39.32,72 36,72 C16.12,72 0,55.88 0,36 C0,16.12 16.12,0 36,0 Z M36,4.28571429 C18.4869346,4.28571429 4.28571429,18.4869346 4.28571429,36 C4.28571429,53.5130654 18.4869346,67.7142857 36,67.7142857 C36.9530654,67.7142857 37.7142857,66.9530654 37.7142857,66 C37.7142857,65.557569 37.5677448,65.1864234 37.2334815,64.8235164 C35.5762584,62.954733 34.6542857,60.5558137 34.6542857,58 C34.6542857,52.3130654 39.2530654,47.7142857 44.94,47.7142857 L52,47.7142857 C60.6730654,47.7142857 67.7142857,40.6730654 67.7142857,32 C67.7142857,16.8100019 53.6217583,4.28571429 36,4.28571429 Z M15.4285714,37.7142857 C11.6342857,37.7142857 8.57142857,34.6514286 8.57142857,30.8571429 C8.57142857,27.0628571 11.6342857,24 15.4285714,24 C19.2228571,24 22.2857143,27.0628571 22.2857143,30.8571429 C22.2857143,34.6514286 19.2228571,37.7142857 15.4285714,37.7142857 Z M15.4285714,33.4285714 C16.8559225,33.4285714 18,32.2844939 18,30.8571429 C18,29.4297918 16.8559225,28.2857143 15.4285714,28.2857143 C14.0012204,28.2857143 12.8571429,29.4297918 12.8571429,30.8571429 C12.8571429,32.2844939 14.0012204,33.4285714 15.4285714,33.4285714 Z M27.4285714,24 C23.6342857,24 20.5714286,20.9371429 20.5714286,17.1428571 C20.5714286,13.3485714 23.6342857,10.2857143 27.4285714,10.2857143 C31.2228571,10.2857143 34.2857143,13.3485714 34.2857143,17.1428571 C34.2857143,20.9371429 31.2228571,24 27.4285714,24 Z M27.4285714,19.7142857 C28.8559225,19.7142857 30,18.5702082 30,17.1428571 C30,15.7155061 28.8559225,14.5714286 27.4285714,14.5714286 C26.0012204,14.5714286 24.8571429,15.7155061 24.8571429,17.1428571 C24.8571429,18.5702082 26.0012204,19.7142857 27.4285714,19.7142857 Z M44.5714286,24 C40.7771429,24 37.7142857,20.9371429 37.7142857,17.1428571 C37.7142857,13.3485714 40.7771429,10.2857143 44.5714286,10.2857143 C48.3657143,10.2857143 51.4285714,13.3485714 51.4285714,17.1428571 C51.4285714,20.9371429 48.3657143,24 44.5714286,24 Z M44.5714286,19.7142857 C45.9987796,19.7142857 47.1428571,18.5702082 47.1428571,17.1428571 C47.1428571,15.7155061 45.9987796,14.5714286 44.5714286,14.5714286 C43.1440775,14.5714286 42,15.7155061 42,17.1428571 C42,18.5702082 43.1440775,19.7142857 44.5714286,19.7142857 Z M49.7142857,30.8571429 C49.7142857,27.0628571 52.7771429,24 56.5714286,24 C60.3657143,24 63.4285714,27.0628571 63.4285714,30.8571429 C63.4285714,34.6514286 60.3657143,37.7142857 56.5714286,37.7142857 C52.7771429,37.7142857 49.7142857,34.6514286 49.7142857,30.8571429 Z M54,30.8571429 C54,32.2844939 55.1440775,33.4285714 56.5714286,33.4285714 C57.9987796,33.4285714 59.1428571,32.2844939 59.1428571,30.8571429 C59.1428571,29.4297918 57.9987796,28.2857143 56.5714286,28.2857143 C55.1440775,28.2857143 54,29.4297918 54,30.8571429 Z" id="iconCanvasWhite"></path>
                        </g>
                    </g>
                </g>
            </g>
        </g>
    </g>
</svg>