<?xml version="1.0" encoding="UTF-8"?>
<svg width="42px" height="42px" viewBox="0 0 42 42" version="1.1" xmlns="http://www.w3.org/2000/svg" xmlns:xlink="http://www.w3.org/1999/xlink">
    <!-- Generator: Sketch 39.1 (31720) - http://www.bohemiancoding.com/sketch -->
    <title>iconHome</title>
    <desc>Created with Sketch.</desc>
    <defs></defs>
    <g id="Symbols" stroke="none" stroke-width="1" fill="none" fill-rule="evenodd">
        <g id="icon-/-home-/-white" fill="#FAFAFA">
            <path d="M21.9140371,2.20159553 L20.0859629,2.20159553 L39.7933193,21.8646011 C40.298128,22.3682466 41.1165847,22.3682466 41.6213934,21.8646011 C42.1262022,21.3609557 42.1262022,20.5443851 41.6213934,20.0407397 L21.9140371,0.377734075 C21.4092283,-0.125911358 20.5907717,-0.125911358 20.0859629,0.377734075 L0.378606551,20.0407397 C-0.126202184,20.5443851 -0.126202184,21.3609557 0.378606551,21.8646011 C0.883415287,22.3682466 1.70187196,22.3682466 2.20668069,21.8646011 L21.9140371,2.20159553 Z M31.761149,40.7103352 L33.0537926,39.4206704 L8.9462074,39.4206704 L10.238851,40.7103352 L10.238851,13.6789609 C10.238851,12.9666987 9.66011476,12.3892961 8.9462074,12.3892961 C8.23230004,12.3892961 7.65356377,12.9666987 7.65356377,13.6789609 L7.65356377,40.7103352 C7.65356377,41.4225974 8.23230004,42 8.9462074,42 L33.0537926,42 C33.7677,42 34.3464362,41.4225974 34.3464362,40.7103352 L34.3464362,13.6789609 C34.3464362,12.9666987 33.7677,12.3892961 33.0537926,12.3892961 C32.3398852,12.3892961 31.761149,12.9666987 31.761149,13.6789609 L31.761149,40.7103352 Z" id="iconHome"></path>
        </g>
    </g>
</svg>