<svg id="Layer_1" data-name="Layer 1" xmlns="http://www.w3.org/2000/svg" viewBox="0 0 42 41.9"><defs><style>.cls-1{fill:#1b75bc;}</style></defs><title>iconMegaphone1</title><g id="Symbols"><g id="icon-_-megaphone-_-blue" data-name="icon-/-megaphone-/-blue"><path id="iconMegaphone" class="cls-1" d="M28.88,27.36a1.32,1.32,0,0,0,.69,1.16l10.5,5.66A1.31,1.31,0,0,0,42,33V1.32A1.31,1.31,0,0,0,40.07.16L29.57,5.82A1.32,1.32,0,0,0,28.88,7V27.36Zm10.53,3.48L31.5,26.6V7.79l7.9-4.27ZM31.5,5.28H11.82a11.89,11.89,0,0,0,0,23.77H31.5V26.42H11.82a9.25,9.25,0,0,1,0-18.49H31.5V5.28ZM19,40.93A1.94,1.94,0,0,0,22.37,39L16.15,29H11.31Z" transform="translate(0 0)"/></g></g></svg>