<?xml version="1.0" encoding="utf-8"?>
<!-- Generator: Adobe Illustrator 20.1.0, SVG Export Plug-In . SVG Version: 6.00 Build 0)  -->
<svg version="1.1" id="Layer_1" xmlns="http://www.w3.org/2000/svg" xmlns:xlink="http://www.w3.org/1999/xlink" x="0px" y="0px"
	 viewBox="0 0 42 42" style="enable-background:new 0 0 42 42;" xml:space="preserve">
<style type="text/css">
	.st0{fill:#FAFAFA;}
</style>
<title>icon / connectionAdd / white</title>
<desc>Created with Sketch.</desc>
<g id="App">
	<g id="Messages" transform="translate(-645.000000, -3325.000000)">
		<g transform="translate(0.000000, 2973.000000)">
			<g id="Group-2" transform="translate(645.000000, 237.000000)">
				<g id="Group" transform="translate(0.000000, 110.000000)">
					<g id="icon-_x2F_-createMessage-_x2F_-white" transform="translate(0.000000, 5.000000)">
						<path id="iconCreateMessageWhite" class="st0" d="M8.9,29.9l1,10.9c0.1,1.1,1.4,1.6,2.2,0.8l10.3-10.1l0,0h3.9
							c8.7,0,15.8-7.1,15.8-15.7C42,7,35,0,26.2,0H15.8C7.1,0,0,7.1,0,15.7C0,22.1,3.1,27.5,8.9,29.9L8.9,29.9z M2.6,15.7
							c0-7.2,5.9-13.1,13.1-13.1h10.5c7.3,0,13.1,5.9,13.1,13.1c0,7.2-5.9,13.1-13.1,13.1h-4.4c-0.3,0-0.7,0.1-0.9,0.4l-8.7,8.5l0,0
							l-0.8-8.9c0-0.5-0.3-0.9-0.8-1.1C5.8,25.8,2.6,21.1,2.6,15.7z M14.5,17.3h5.3l0,0v4v1.4c0,0.7,0.6,1.2,1.2,1.2
							c0.7,0,1.2-0.5,1.2-1.2v-5.3l0,0h4h1.4c0.7,0,1.2-0.6,1.2-1.2c0-0.7-0.5-1.2-1.2-1.2h-5.3l0,0V9.6c0-0.7-0.6-1.2-1.2-1.2
							c-0.7,0-1.2,0.6-1.2,1.2v5.3l0,0h-5.3c-0.7,0-1.2,0.6-1.2,1.2C13.2,16.8,13.8,17.3,14.5,17.3z"/>
					</g>
				</g>
			</g>
		</g>
	</g>
</g>
</svg>
