<?xml version="1.0" encoding="UTF-8"?>
<svg width="42px" height="42px" viewBox="0 0 42 42" version="1.1" xmlns="http://www.w3.org/2000/svg" xmlns:xlink="http://www.w3.org/1999/xlink">
    <!-- Generator: Sketch 39.1 (31720) - http://www.bohemiancoding.com/sketch -->
    <title>icon / connectionAdd / white</title>
    <desc>Created with Sketch.</desc>
    <defs></defs>
    <g id="App" stroke="none" stroke-width="1" fill="none" fill-rule="evenodd">
        <g transform="translate(-225.000000, -2483.000000)" id="Discussions" fill="#1B75BC">
            <g transform="translate(0.000000, 2204.000000)">
                <g id="Group-3" transform="translate(225.000000, 164.000000)">
                    <g id="Group" transform="translate(0.000000, 110.000000)">
                        <g id="icon-/-text-/-blue" transform="translate(0.000000, 5.000000)">
                            <path d="M21,42 C9.40202025,42 0,32.5979797 0,21 C0,9.40202025 9.40202025,0 21,0 C32.5979797,0 42,9.40202025 42,21 C42,32.5979797 32.5979797,42 21,42 Z M21,39.4 C31.1620394,39.4 39.4,31.1620394 39.4,21 C39.4,10.8379606 31.1620394,2.6 21,2.6 C10.8379606,2.6 2.6,10.8379606 2.6,21 C2.6,31.1620394 10.8379606,39.4 21,39.4 Z M7.76000023,14.3269268 C7.76000023,14.9818797 8.29099703,15.5128239 8.94749117,15.5128239 L33.0525088,15.5128239 C33.708342,15.5128239 34.2399998,14.9864459 34.2399998,14.3269268 C34.2399998,13.671974 33.709003,13.1410298 33.0525088,13.1410298 L8.94749117,13.1410298 C8.29165803,13.1410298 7.76000023,13.6674078 7.76000023,14.3269268 Z M7.76000023,24.5576911 C7.76000023,25.2126439 8.29099703,25.7435881 8.94749117,25.7435881 L33.0525088,25.7435881 C33.708342,25.7435881 34.2399998,25.2172101 34.2399998,24.5576911 C34.2399998,23.9027382 33.709003,23.371794 33.0525088,23.371794 L8.94749117,23.371794 C8.29165803,23.371794 7.76000023,23.898172 7.76000023,24.5576911 Z M14.8800001,29.6730732 C14.8800001,30.328026 15.4208364,30.8589702 16.0696017,30.8589702 L25.9303983,30.8589702 C26.5873971,30.8589702 27.1199999,30.3325922 27.1199999,29.6730732 C27.1199999,29.0181203 26.5791636,28.4871761 25.9303983,28.4871761 L16.0696017,28.4871761 C15.4126029,28.4871761 14.8800001,29.0135541 14.8800001,29.6730732 Z M12.5066668,19.4423089 C12.5066668,20.0972618 13.0342954,20.628206 13.6943678,20.628206 L28.3056322,20.628206 C28.9615813,20.628206 29.4933332,20.101828 29.4933332,19.4423089 C29.4933332,18.7873561 28.9657046,18.2564119 28.3056322,18.2564119 L13.6943678,18.2564119 C13.0384187,18.2564119 12.5066668,18.7827899 12.5066668,19.4423089 Z" id="iconText"></path>
                        </g>
                    </g>
                </g>
            </g>
        </g>
    </g>
</svg>