<?xml version="1.0" encoding="UTF-8"?>
<svg width="42px" height="42px" viewBox="0 0 42 42" version="1.1" xmlns="http://www.w3.org/2000/svg" xmlns:xlink="http://www.w3.org/1999/xlink">
    <!-- Generator: Sketch 39.1 (31720) - http://www.bohemiancoding.com/sketch -->
    <title>iconConnectionConfirmedWhite</title>
    <desc>Created with Sketch.</desc>
    <defs></defs>
    <g id="Symbols" stroke="none" stroke-width="1" fill="none" fill-rule="evenodd">
        <g id="icon-/-connectionConfirmed-/-white" fill="#1B75BC">
            <path d="M22.9891155,20.259934 C20.5706886,18.6074535 17.7047948,17.7056881 14.7020502,17.7056881 C6.58859047,17.7056881 0,24.2883567 0,32.3915851 L0,36.7964595 C0,37.4714038 0.547479383,38.0185281 1.22279715,38.0185281 C1.89811492,38.0185281 2.44559431,37.4714038 2.44559431,36.7964595 L2.44559431,32.3915851 C2.44559431,25.6382246 7.93924686,20.1498254 14.7020502,20.1498254 C16.9968557,20.1498254 19.1960425,20.7812349 21.1012597,21.9492455 C19.1739501,24.0782458 18,26.9020275 18,30 C18,36.627417 23.372583,42 30,42 C36.627417,42 42,36.627417 42,30 C42,23.372583 36.627417,18 30,18 C27.3828214,18 24.9613309,18.8378403 22.9891155,20.259934 Z M22.6644738,7.95732407 C22.6644738,12.3520473 19.0995609,15.9146481 14.7020502,15.9146481 C10.3045395,15.9146481 6.73962651,12.3520473 6.73962651,7.95732407 C6.73962651,3.56260088 10.3045395,0 14.7020502,0 C19.0995609,0 22.6644738,3.56260088 22.6644738,7.95732407 Z M8.98616868,7.95732407 C8.98616868,11.112121 11.5452704,13.669563 14.7020502,13.669563 C17.8588299,13.669563 20.4179317,11.112121 20.4179317,7.95732407 C20.4179317,4.80252716 17.8588299,2.24508514 14.7020502,2.24508514 C11.5452704,2.24508514 8.98616868,4.80252716 8.98616868,7.95732407 Z M20,30 C20,24.4771525 24.4771525,20 30,20 C35.5228475,20 40,24.4771525 40,30 C40,35.5228475 35.5228475,40 30,40 C24.4771525,40 20,35.5228475 20,30 Z M27.4297459,33.3942093 L35.1770228,25.651957 C35.5136887,25.3155095 36.06947,25.3148427 36.411854,25.6570047 C36.7566251,26.0015521 36.7549456,26.5532137 36.4134344,26.8945034 L27.7650011,35.5373276 C27.4213432,35.8807626 26.8690833,35.8779102 26.5266993,35.5357482 C26.5170257,35.5260534 26.5145955,35.5236523 26.5121759,35.5212342 L23.4266847,32.4377441 C23.0841645,32.0954461 23.0846098,31.5411369 23.4269938,31.198975 C23.7717648,30.8544275 24.3243536,30.8566747 24.6665669,31.198666 L27.1466404,33.6771311 L27.4297459,33.3942093 Z" id="iconConnectionConfirmedWhite"></path>
        </g>
    </g>
</svg>