<?xml version="1.0" encoding="UTF-8"?>
<svg width="42px" height="42px" viewBox="0 0 42 42" version="1.1" xmlns="http://www.w3.org/2000/svg" xmlns:xlink="http://www.w3.org/1999/xlink">
    <!-- Generator: Sketch 39.1 (31720) - http://www.bohemiancoding.com/sketch -->
    <title>iconTap</title>
    <desc>Created with Sketch.</desc>
    <defs>
        <path d="M20.789097,28.1892915 C25.3421061,28.1892915 28.9135717,28.5598898 28.9135717,24.0154137 C28.9135717,19.4709376 25.2226285,15.7869118 20.6696194,15.7869118 C16.1166103,15.7869118 12.4256672,19.4709376 12.4256672,24.0154137 C12.4256672,28.5598898 16.2360879,28.1892915 20.789097,28.1892915 Z" id="path-1"></path>
        <mask id="mask-2" maskContentUnits="userSpaceOnUse" maskUnits="objectBoundingBox" x="0" y="0" width="16.4879045" height="12.409667" fill="white">
            <use xlink:href="#path-1"></use>
        </mask>
        <path d="M32.0199885,42 L32.0199885,23.3964305 C32.0199885,17.107774 26.9382552,12.1865873 20.6696194,12.1865873 C14.4009837,12.1865873 9.31925038,17.107774 9.31925038,23.3964305 C9.31925038,27.6180674 9.31925038,35.7988102 9.31925038,42" id="path-3"></path>
        <mask id="mask-4" maskContentUnits="userSpaceOnUse" maskUnits="objectBoundingBox" x="0" y="0" width="22.7007381" height="29.8134127" fill="white">
            <use xlink:href="#path-3"></use>
        </mask>
    </defs>
    <g id="Symbols" stroke="none" stroke-width="1" fill="none" fill-rule="evenodd">
        <g id="icon-/-tap-/-white">
            <g id="iconTap">
                <use id="Oval-28" stroke="#FAFAFA" mask="url(#mask-2)" stroke-width="4.88372093" xlink:href="#path-1"></use>
                <path d="M38.6091674,28.8249778 L37.4893121,28.3135576 C38.6358926,25.8528558 39.1951866,23.4456575 39.1951866,20.7918161 C39.1951866,10.6529674 30.968662,2.44186047 20.8308561,2.44186047 C10.6930503,2.44186047 2.46652572,10.6529674 2.46652572,20.7918161 C2.46652572,23.4405955 3.02533567,25.9051854 4.13931611,28.3230462 L1.89520886,29.3363981 L1.89520886,29.3363981 C0.6784672,26.6954971 0,23.8890715 0,20.7918161 C0,9.30881315 9.32629197,0 20.8308561,0 C32.3354203,0 41.6617123,9.30881315 41.6617123,20.7918161 C41.6617123,23.9206574 40.969248,26.6747235 39.7290228,29.3363981 L38.6091674,28.8249778 L37.4893121,28.3135576 C38.6358926,25.8528558 39.1951866,23.4456575 39.1951866,20.7918161 C39.1951866,10.6529674 30.968662,2.44186047 20.8308561,2.44186047 C10.6930503,2.44186047 2.46652572,10.6529674 2.46652572,20.7918161 C2.46652572,23.4405955 3.02533567,25.9051854 4.13931611,28.3230462 L1.89520886,29.3363981 L1.89520886,29.3363981 C0.6784672,26.6954971 0,23.8890715 0,20.7918161 C0,9.30881315 9.32629197,0 20.8308561,0 C32.3354203,0 41.6617123,9.30881315 41.6617123,20.7918161 C41.6617123,23.9206574 40.969248,26.6747235 39.7290228,29.3363981 L38.6091674,28.8249778 Z" id="Shape" fill="#FAFAFA"></path>
                <use id="Oval-29" stroke="#FAFAFA" mask="url(#mask-4)" stroke-width="4.88372093" xlink:href="#path-3"></use>
            </g>
        </g>
    </g>
</svg>