<?xml version="1.0" encoding="UTF-8"?>
<svg width="26px" height="42px" viewBox="0 0 26 42" version="1.1" xmlns="http://www.w3.org/2000/svg" xmlns:xlink="http://www.w3.org/1999/xlink">
    <!-- Generator: Sketch 41.1 (35376) - http://www.bohemiancoding.com/sketch -->
    <title>boutLogo</title>
    <desc>Created with Sketch.</desc>
    <defs></defs>
    <g id="Symbols" stroke="none" stroke-width="1" fill="none" fill-rule="evenodd">
        <g id="navigation-/-top" transform="translate(-707.000000, -15.000000)" fill="#FAFAFA">
            <path d="M710.401743,31.5213143 L710.399619,16.7502937 C710.399619,15.7837426 709.638482,15 708.699809,15 C707.761137,15 707,15.7837426 707,16.7502937 C707,16.7519954 707.000236,16.753454 707.000236,16.7551557 C707.000236,16.9457432 707,35.5477192 707,35.5477192 C707,35.6250239 707.061146,35.688472 707.136929,35.688472 C707.203505,35.688472 707.290384,35.5418849 707.290384,35.5418849 C708.087642,34.0796604 709.074712,32.9237372 710.291728,31.8023337 C710.291728,31.8023337 710.401743,31.6999902 710.401743,31.5213143 L710.401743,31.5213143 Z M729.604395,43.6328608 C729.604395,38.264321 725.207319,33.7288723 720.002361,33.7288723 C714.797167,33.7288723 710.400091,38.0443188 710.400091,43.6328608 C710.400091,46.2004445 710.399619,53.5293134 710.399619,53.5293134 C710.399619,53.5293134 717.855879,53.5356339 720.002361,53.5356339 C725.207319,53.5356339 729.604395,49.0009145 729.604395,43.6328608 L729.604395,43.6328608 Z M733,43.6146286 C733,50.9950339 727.168238,57 720.000472,57 L709.032925,57 C707.314229,57 707,55.8625522 707,54.908399 L707,43.6146286 C707,36.2330079 712.83129,30.2275556 720.000472,30.2275556 C727.168238,30.2275556 733,36.2330079 733,43.6146286 L733,43.6146286 Z" id="boutLogo"></path>
        </g>
    </g>
</svg>