<?xml version="1.0" encoding="UTF-8"?>
<svg width="120px" height="120px" viewBox="0 0 120 120" version="1.1" xmlns="http://www.w3.org/2000/svg" xmlns:xlink="http://www.w3.org/1999/xlink">
    <!-- Generator: Sketch 41.1 (35376) - http://www.bohemiancoding.com/sketch -->
    <title>icon_instagram_blue</title>
    <desc>Created with Sketch.</desc>
    <defs></defs>
    <g id="Symbols" stroke="none" stroke-width="1" fill="none" fill-rule="evenodd">
        <g id="icon-/-instagram-/-white" fill="#1B75BC">
            <path d="M60,120 C93.137085,120 120,93.137085 120,60 C120,26.862915 93.137085,0 60,0 C26.862915,0 0,26.862915 0,60 C0,93.137085 26.862915,120 60,120 Z M59.9999345,27 C51.0376071,27 49.9139431,27.0379882 46.3941422,27.1985865 C42.881546,27.3589228 40.4827892,27.916694 38.3836151,28.7325228 C36.2135733,29.5758602 34.3732427,30.70424 32.5386759,32.5388069 C30.704109,34.3733737 29.5757292,36.2137043 28.7323918,38.3837461 C27.916563,40.4829202 27.3587918,42.881677 27.1984555,46.3942732 C27.0378572,49.9139431 27,51.0377381 27,60.0000655 C27,68.9623929 27.0378572,70.0861879 27.1984555,73.6058578 C27.3587918,77.118454 27.916563,79.5172108 28.7323918,81.6163849 C29.5757292,83.7862957 30.704109,85.6267573 32.5386759,87.4613241 C34.3732427,89.295891 36.2135733,90.4242708 38.3836151,91.2676082 C40.4827892,92.083437 42.881546,92.6412082 46.3941422,92.8015445 C49.9139431,92.9621428 51.0376071,93 59.9999345,93 C68.9622619,93 70.0860569,92.9621428 73.6057268,92.8015445 C77.118323,92.6412082 79.5170798,92.083437 81.6162539,91.2676082 C83.7862957,90.4242708 85.6266263,89.295891 87.4611931,87.4613241 C89.29576,85.6267573 90.4241398,83.7864267 91.2674772,81.6163849 C92.083306,79.5172108 92.6410772,77.118454 92.8014135,73.6058578 C92.9620118,70.0861879 93,68.9623929 93,60.0000655 C93,51.0377381 92.9620118,49.9139431 92.8014135,46.3942732 C92.6410772,42.881677 92.083306,40.4829202 91.2674772,38.3837461 C90.4241398,36.2137043 89.29576,34.3733737 87.4611931,32.5388069 C85.6266263,30.70424 83.7862957,29.5758602 81.6162539,28.7325228 C79.5170798,27.916694 77.118323,27.3589228 73.6057268,27.1985865 C70.0860569,27.0379882 68.9622619,27 59.9999345,27 Z M60,33 C68.7938352,33 69.8353791,33.0334675 73.3081504,33.1919149 C76.5191959,33.3384658 78.2630333,33.8749909 79.4236742,34.3258864 C80.9608239,34.9233328 82.0580596,35.6371309 83.2104644,36.7895356 C84.3628691,37.9419404 85.0766672,39.0391761 85.6739828,40.5763258 C86.1250091,41.7369667 86.6615342,43.4808041 86.8080851,46.6917188 C86.9665325,50.1646209 87,51.2061648 87,60 C87,68.7938352 86.9665325,69.8353791 86.8080851,73.3081504 C86.6615342,76.5191959 86.1250091,78.2630333 85.6739828,79.4236742 C85.0766672,80.9608239 84.3628691,82.0580596 83.2104644,83.2104644 C82.0580596,84.3628691 80.9608239,85.0766672 79.4236742,85.6739828 C78.2630333,86.1250091 76.5191959,86.6615342 73.3081504,86.8080851 C69.835902,86.9665325 68.7943582,87 60,87 C51.2056418,87 50.164098,86.9665325 46.6918496,86.8080851 C43.4808041,86.6615342 41.7369667,86.1250091 40.5764566,85.6739828 C39.0391761,85.0766672 37.9419404,84.3628691 36.7895356,83.2104644 C35.6371309,82.0580596 34.9233328,80.9608239 34.3260172,79.4236742 C33.8749909,78.2630333 33.3384658,76.5191959 33.1919149,73.3082812 C33.0334675,69.8353791 33,68.7938352 33,60 C33,51.2061648 33.0334675,50.1646209 33.1919149,46.6918496 C33.3384658,43.4808041 33.8749909,41.7369667 34.3260172,40.5763258 C34.9233328,39.0391761 35.6371309,37.9419404 36.7895356,36.7895356 C37.9419404,35.6371309 39.0391761,34.9233328 40.5764566,34.3258864 C41.7369667,33.8749909 43.4808041,33.3384658 46.6917188,33.1919149 C50.1646209,33.0334675 51.2061648,33 60,33 Z M60,43 C50.6112009,43 43,50.6112009 43,60 C43,69.3887991 50.6112009,77 60,77 C69.3887991,77 77,69.3887991 77,60 C77,50.6112009 69.3887991,43 60,43 Z M60,71 C53.9249411,71 49,66.0750589 49,60 C49,53.9249411 53.9249411,49 60,49 C66.0750589,49 71,53.9249411 71,60 C71,66.0750589 66.0750589,71 60,71 Z M82,41.9999338 C82,44.2090935 80.2092258,46 78.0000662,46 C75.7909065,46 74,44.2090935 74,41.9999338 C74,39.7907742 75.7909065,38 78.0000662,38 C80.2092258,38 82,39.7907742 82,41.9999338 Z" id="icon_instagram_blue"></path>
        </g>
    </g>
</svg>