<?xml version="1.0" encoding="UTF-8" standalone="no"?>
<svg width="26px" height="26px" viewBox="0 0 26 26" version="1.1" xmlns="http://www.w3.org/2000/svg" xmlns:xlink="http://www.w3.org/1999/xlink">
    <!-- Generator: Sketch 40.1 (33804) - http://www.bohemiancoding.com/sketch -->
    <title>j</title>
    <desc>Created with Sketch.</desc>
    <defs></defs>
    <g id="About" stroke="none" stroke-width="1" fill="none" fill-rule="evenodd">
        <g id="About/1200" transform="translate(-979.000000, -2579.000000)" fill="#1B75BC">
            <g id="Contributors" transform="translate(0.000000, 1777.000000)">
                <g id="Group-2">
                    <g id="Group" transform="translate(124.000000, 202.000000)">
                        <g id="contributor" transform="translate(680.000000, 381.000000)">
                            <path d="M175,222.166994 C175,221.307134 175.308916,220.55796 175.926758,219.91945 C176.553063,219.30648 177.293616,219 178.148438,219 C179.011723,219 179.752276,219.30648 180.370117,219.91945 C180.987959,220.55796 181.296875,221.307134 181.296875,222.166994 C181.296875,223.018341 180.987959,223.763258 180.370117,224.401768 C179.752276,225.023251 179.011723,225.333988 178.148438,225.333988 C177.285152,225.333988 176.544599,225.023251 175.926758,224.401768 C175.308916,223.763258 175,223.018341 175,222.166994 L175,222.166994 Z M175.165039,244.335953 L175.165039,227.875246 C175.165039,227.696463 175.232747,227.538966 175.368164,227.40275 C175.495118,227.275048 175.64746,227.211198 175.825195,227.211198 L180.47168,227.211198 C180.649415,227.211198 180.801757,227.275048 180.928711,227.40275 C181.064128,227.538966 181.131836,227.696463 181.131836,227.875246 L181.131836,244.335953 C181.131836,244.506222 181.064128,244.659462 180.928711,244.795678 C180.793294,244.931893 180.640951,245 180.47168,245 L175.825195,245 C175.655924,245 175.503581,244.931893 175.368164,244.795678 C175.232747,244.659462 175.165039,244.506222 175.165039,244.335953 L175.165039,244.335953 Z M183.658203,244.335953 L183.658203,227.875246 C183.658203,227.687949 183.721679,227.530453 183.848633,227.40275 C183.975587,227.275048 184.132161,227.211198 184.318359,227.211198 L188.825195,227.211198 C188.994467,227.211198 189.125651,227.240995 189.21875,227.300589 C189.303386,227.35167 189.366862,227.470857 189.40918,227.658153 C189.426107,227.794369 189.447265,227.905042 189.472656,227.990177 L189.472656,228.130648 C189.48112,228.23281 189.485352,228.330713 189.485352,228.424361 C190.653326,227.326124 192.197907,226.777014 194.119141,226.777014 C196.277355,226.777014 197.961582,227.317611 199.171875,228.398821 C200.390631,229.488545 201,231.09331 201,233.213163 L201,244.335953 C201,244.506222 200.932292,244.659462 200.796875,244.795678 C200.661458,244.931893 200.509115,245 200.339844,245 L195.591797,245 C195.414062,245 195.257488,244.931893 195.12207,244.795678 C194.995117,244.667976 194.931641,244.514736 194.931641,244.335953 L194.931641,234.298625 C194.931641,233.421738 194.762371,232.76621 194.423828,232.332024 C194.093748,231.914864 193.497075,231.706287 192.633789,231.706287 C191.516596,231.706287 190.737958,232.029794 190.297852,232.676817 C189.849282,233.332354 189.625,234.239025 189.625,235.396857 L189.625,244.335953 C189.625,244.514736 189.561524,244.667976 189.43457,244.795678 C189.299153,244.931893 189.138347,245 188.952148,245 L184.318359,245 C184.140624,245 183.98405,244.931893 183.848633,244.795678 C183.721679,244.667976 183.658203,244.514736 183.658203,244.335953 L183.658203,244.335953 Z" id="j"></path>
                        </g>
                    </g>
                </g>
            </g>
        </g>
    </g>
</svg>