<?xml version="1.0" encoding="utf-8"?>
<!-- Generator: Adobe Illustrator 20.1.0, SVG Export Plug-In . SVG Version: 6.00 Build 0)  -->
<svg version="1.1" id="Layer_1" xmlns="http://www.w3.org/2000/svg" xmlns:xlink="http://www.w3.org/1999/xlink" x="0px" y="0px"
	 viewBox="0 0 72 72" style="enable-background:new 0 0 72 72;" xml:space="preserve">
<style type="text/css">
	.st0{fill:#1B75BC;}
</style>
<title>icon / discussions / white</title>
<desc>Created with Sketch.</desc>
<g id="App">
	<g id="Group-20" transform="translate(-1124.000000, -1233.000000)">
		<g transform="translate(0.000000, 878.000000)">
			<g id="Group-7" transform="translate(1060.000000, 355.000000)">
				<g id="Group">
					<g id="icon-_x2F_-discussions-_x2F_-white" transform="translate(64.000000, 0.000000)">
						<path id="iconComment" class="st0" d="M15.2,51.3l1.7,18.6c0.2,1.9,2.5,2.7,3.8,1.4l18.3-18L37.4,54H45c14.9,0,27-12.1,27-27
							C72,12.1,59.9,0,45,0H27C12.1,0,0,12.1,0,27C0,37.9,5.3,47.1,15.2,51.3L15.2,51.3z M4.5,27C4.5,14.6,14.6,4.5,27,4.5h18
							c12.4,0,22.5,10.1,22.5,22.5c0,12.4-10.1,22.5-22.5,22.5h-7.6c-0.6,0-1.2,0.2-1.6,0.6L20.9,64.8l0,0l-1.4-15.2
							c-0.1-0.8-0.6-1.5-1.4-1.9C10,44.2,4.5,36.1,4.5,27z M20.3,21.6c-1.2,0-2.3,1-2.3,2.2c0,1.2,1,2.2,2.3,2.2h31.5
							c1.2,0,2.3-1,2.3-2.2c0-1.2-1-2.2-2.3-2.2H20.3z M29.2,30.6c-1.2,0-2.2,1-2.2,2.2c0,1.2,1,2.2,2.2,2.2h13.5
							c1.2,0,2.2-1,2.2-2.2c0-1.2-1-2.2-2.2-2.2H29.2z"/>
					</g>
				</g>
			</g>
		</g>
	</g>
</g>
</svg>
