<?xml version="1.0" encoding="utf-8"?>
<!-- Generator: Adobe Illustrator 20.1.0, SVG Export Plug-In . SVG Version: 6.00 Build 0)  -->
<svg version="1.1" id="Layer_1" xmlns="http://www.w3.org/2000/svg" xmlns:xlink="http://www.w3.org/1999/xlink" x="0px" y="0px"
	 viewBox="0 0 72 72" style="enable-background:new 0 0 72 72;" xml:space="preserve">
<style type="text/css">
	.st0{fill:#1B75BC;}
</style>
<title>icon / media / white</title>
<desc>Created with Sketch.</desc>
<g id="App">
	<g id="Group-20" transform="translate(-684.000000, -1233.000000)">
		<g transform="translate(0.000000, 878.000000)">
			<g id="Group-12" transform="translate(620.000000, 355.000000)">
				<g id="Group-2" transform="translate(5.000000, 0.000000)">
					<g id="icon-_x2F_-media-_x2F_-white" transform="translate(59.000000, 0.000000)">
						<path id="iconCreateDiscussion" class="st0" d="M6.4,72h4.5l0,0h54.4c3.7,0,6.8-3,6.8-6.7V6.7C72,3,69,0,65.2,0h-45
							c-3.7,0-6.8,3-6.8,6.8v43.8c0,1.2,1,2.2,2.2,2.2s2.2-1,2.2-2.2V6.8c0-1.2,1-2.3,2.3-2.3h45c1.3,0,2.3,1,2.3,2.2v58.5
							c0,1.2-1,2.2-2.3,2.2H6.8 M6.7,13.5c-3.7,0-6.7,3-6.7,6.8v44.9C0,68.9,3,72,6.7,72C8,72,9,71,9,69.7s-1-2.2-2.2-2.2
							c-1.2,0-2.2-1-2.2-2.3V20.3c0-1.3,1-2.3,2.2-2.3h6.8l0-2.3l0,0c0,0.3,0-2.9,0-2.2 M18,20.3c0-1.1,0-2.2,0-3.2 M27,18v4.5
							c0,3.7,3,6.7,6.8,6.7h18c3.7,0,6.8-3,6.8-6.7V18c0-3.7-3-6.7-6.8-6.7h-18C30,11.3,27,14.3,27,18z M51.7,15.8
							c1.3,0,2.3,1,2.3,2.2v4.5c0,1.2-1,2.2-2.3,2.2h-18c-1.3,0-2.3-1-2.3-2.2V18c0-1.2,1-2.2,2.3-2.2H51.7z M32.4,50.3
							c-0.9,0-1.6-0.7-1.6-1.6c0-0.9,0.7-1.6,1.6-1.6H42v-9.5c0-0.9,0.7-1.6,1.6-1.6c0.9,0,1.6,0.7,1.6,1.6v9.5h9.6
							c0.9,0,1.6,0.7,1.6,1.6c0,0.9-0.7,1.6-1.6,1.6h-2.3h-7.3V60c0,0.9-0.7,1.6-1.6,1.6c-0.9,0-1.6-0.7-1.6-1.6v-2.3v-7.3H32.4z"/>
					</g>
				</g>
			</g>
		</g>
	</g>
</g>
</svg>
