<?xml version="1.0" encoding="utf-8"?>
<!-- Generator: Adobe Illustrator 20.1.0, SVG Export Plug-In . SVG Version: 6.00 Build 0)  -->
<svg version="1.1" id="Layer_1" xmlns="http://www.w3.org/2000/svg" xmlns:xlink="http://www.w3.org/1999/xlink" x="0px" y="0px"
	 viewBox="0 0 72 72" style="enable-background:new 0 0 72 72;" xml:space="preserve">
<style type="text/css">
	.st0{fill:#FAFAFA;}
</style>
<title>icon / media / white</title>
<desc>Created with Sketch.</desc>
<g id="App">
	<g id="Group-21" transform="translate(-684.000000, -660.000000)">
		<g transform="translate(0.000000, 433.000000)">
			<g id="Group-17" transform="translate(620.000000, 227.000000)">
				<g id="Group-2" transform="translate(5.000000, 0.000000)">
					<g id="icon-_x2F_-media-_x2F_-white" transform="translate(59.000000, 0.000000)">
						<path id="iconMediaWhite" class="st0" d="M0,2.2v67.5C0,71,1,72,2.2,72h67.5c1.2,0,2.2-1,2.2-2.2V2.2C72,1,71,0,69.8,0H2.2
							C1,0,0,1,0,2.2z M67.5,4.5v63l0,0h-63l0,0v-63c0,0,0,0,0,0H67.5C67.6,4.6,67.4,4.4,67.5,4.5z M60.7,16.9
							c0-4.3-3.5-7.9-7.9-7.9S45,12.5,45,16.9s3.5,7.9,7.9,7.9S60.7,21.2,60.7,16.9z M49.5,16.9c0-1.9,1.5-3.4,3.4-3.4
							s3.4,1.5,3.4,3.4s-1.5,3.4-3.4,3.4S49.5,18.7,49.5,16.9z M22.4,33L22.4,33C22.4,33,22.4,32.9,22.4,33l16.2,21.8
							c0.9,1.2,2.6,1.2,3.5,0.2L54,41.7c0,0,0,0,0,0l0,0c0,0,0,0,0,0l14,16c0.8,0.9,2.2,1.2,3.1,0.5c1.1-0.8,1.2-2.3,0.4-3.3
							l-15.7-18c-0.9-1-2.5-1-3.4,0c0,0-11.6,13.1-11.6,13.1l0,0c0,0,0,0,0,0l-16.3-22c-0.9-1.2-2.7-1.2-3.6-0.1L1.3,52.5
							c-0.7,0.9-0.7,2.3,0.1,3.2c1,0.9,2.5,0.8,3.3-0.2L22.4,33L22.4,33z"/>
					</g>
				</g>
			</g>
		</g>
	</g>
</g>
</svg>
