<?xml version="1.0" encoding="utf-8"?>
<!-- Generator: Adobe Illustrator 20.1.0, SVG Export Plug-In . SVG Version: 6.00 Build 0)  -->
<svg version="1.1" id="Layer_1" xmlns="http://www.w3.org/2000/svg" xmlns:xlink="http://www.w3.org/1999/xlink" x="0px" y="0px"
	 viewBox="0 0 42 42" style="enable-background:new 0 0 42 42;" xml:space="preserve">
<style type="text/css">
	.st0{fill:#1B75BC;}
</style>
<title>icon / canvas / whiteSmall</title>
<desc>Created with Sketch.</desc>
<g id="App">
	<g id="Discussions" transform="translate(-225.000000, -2628.000000)">
		<g transform="translate(0.000000, 2204.000000)">
			<g id="Group-3" transform="translate(225.000000, 164.000000)">
				<g id="Group" transform="translate(0.000000, 110.000000)">
					<g id="icon-_x2F_-megaphone-_x2F_-blue" transform="translate(0.000000, 150.000000)">
						<path id="iconMegaphone" class="st0" d="M28.9,26.4l1.7,2.6l9.5,5.1C40.9,34.7,42,34,42,33V1.3c0-1-1.1-1.6-1.9-1.2l-9.5,5.1
							l-1.7,2.6V26.4L28.9,26.4z M31.5,7.8l7.9-4.2l0,0v27.3l0,0l-7.9-4.2l0,0V7.8L31.5,7.8L31.5,7.8z M30.6,5.3H16.8h-5.9
							c-6.5,0-11.8,5.3-11.8,11.9c0,6.6,5.3,11.9,11.8,11.9h5.9h13.8l-1.7-2.6H16.8h-5.9c-5.1,0-9.2-4.1-9.2-9.2
							c0-5.1,4.1-9.2,9.2-9.2h5.9h12.1L30.6,5.3L30.6,5.3z M11.3,29.1L19,41c0.5,0.9,1.7,1.2,2.6,0.7c0.9-0.5,1.2-1.7,0.7-2.6
							l-6.2-10"/>
					</g>
				</g>
			</g>
		</g>
	</g>
</g>
</svg>
