<?xml version="1.0" encoding="UTF-8"?>
<svg width="26px" height="42px" viewBox="0 0 26 42" version="1.1" xmlns="http://www.w3.org/2000/svg" xmlns:xlink="http://www.w3.org/1999/xlink">
    <!-- Generator: Sketch 39.1 (31720) - http://www.bohemiancoding.com/sketch -->
    <title>icon / connectionAdd / white</title>
    <desc>Created with Sketch.</desc>
    <defs></defs>
    <g id="App" stroke="none" stroke-width="1" fill="none" fill-rule="evenodd">
        <g transform="translate(-229.000000, -5624.000000)" id="Ergonomics" fill="#1B75BC">
            <g transform="translate(0.000000, 5280.000000)">
                <g id="Group-3" transform="translate(221.000000, 209.000000)">
                    <g id="Group" transform="translate(0.000000, 130.000000)">
                        <g id="icon-/-phone-/-blue" transform="translate(0.000000, 5.000000)">
                            <path d="M8,2.6272881 L8,39.3727119 C8,40.823723 9.16767609,42 10.5880337,42 L31.4119663,42 C32.8412979,42 34,40.832844 34,39.3727119 L34,2.6272881 C34,1.17627695 32.8323239,0 31.4119663,0 L10.5880337,0 C9.15870214,0 8,1.16715601 8,2.6272881 L8,2.6272881 Z M31.4119663,2.625 C31.3976802,2.625 31.4,39.3727119 31.4,39.3727119 C31.4,39.3817552 10.5880337,39.375 10.5880337,39.375 C10.6023198,39.375 10.6,2.6272881 10.6,2.6272881 C10.6,2.61824477 31.4119663,2.625 31.4119663,2.625 L31.4119663,2.625 Z M10.5932025,31.5 C9.87898649,31.5 9.3,32.0825726 9.3,32.8125 C9.3,33.5373737 9.88620301,34.125 10.5932025,34.125 L32.7067975,34.125 C33.4210135,34.125 34,33.5424274 34,32.8125 C34,32.0876263 33.413797,31.5 32.7067975,31.5 L10.5932025,31.5 Z M21,38.0625 C21.7179702,38.0625 22.3,37.4748737 22.3,36.75 C22.3,36.0251263 21.7179702,35.4375 21,35.4375 C20.2820298,35.4375 19.7,36.0251263 19.7,36.75 C19.7,37.4748737 20.2820298,38.0625 21,38.0625 Z" id="iconPhone"></path>
                        </g>
                    </g>
                </g>
            </g>
        </g>
    </g>
</svg>