<?xml version="1.0" encoding="UTF-8"?>
<svg width="26px" height="26px" viewBox="0 0 26 26" version="1.1" xmlns="http://www.w3.org/2000/svg" xmlns:xlink="http://www.w3.org/1999/xlink">
    <!-- Generator: Sketch 41.1 (35376) - http://www.bohemiancoding.com/sketch -->
    <title>instagram</title>
    <desc>Created with Sketch.</desc>
    <defs></defs>
    <g id="Symbols" stroke="none" stroke-width="1" fill="none" fill-rule="evenodd">
        <path d="M12.9999742,0 C9.46936037,0 9.02670485,0.0149650386 7.64011662,0.0782310292 C6.25636659,0.141393813 5.31140181,0.361121862 4.48445442,0.682508966 C3.62958949,1.01473282 2.90461078,1.45924607 2.18190262,2.18195423 C1.45919447,2.90466238 1.01468122,3.6296411 0.682457363,4.48450602 C0.361070258,5.31145341 0.141342209,6.2564182 0.0781794257,7.64016823 C0.014913435,9.02670485 0,9.46941198 0,13.0000258 C0,16.5306396 0.014913435,16.9733468 0.0781794257,18.3598834 C0.141342209,19.7436334 0.361070258,20.6885982 0.682457363,21.5155456 C1.01468122,22.3703589 1.45919447,23.0953892 2.18190262,23.8180974 C2.90461078,24.5408055 3.62958949,24.9853188 4.48445442,25.3175426 C5.31140181,25.6389297 6.25636659,25.8586578 7.64011662,25.9218206 C9.02670485,25.9850866 9.46936037,26 12.9999742,26 C16.530588,26 16.9732951,25.9850866 18.3598318,25.9218206 C19.7435818,25.8586578 20.6885466,25.6389297 21.515494,25.3175426 C22.3703589,24.9853188 23.0953376,24.5408055 23.8180458,23.8180974 C24.5407539,23.0953892 24.9852672,22.3704105 25.317491,21.5155456 C25.6388781,20.6885982 25.8586062,19.7436334 25.921769,18.3598834 C25.985035,16.9733468 26,16.5306396 26,13.0000258 C26,9.46941198 25.985035,9.02670485 25.921769,7.64016823 C25.8586062,6.2564182 25.6388781,5.31145341 25.317491,4.48450602 C24.9852672,3.6296411 24.5407539,2.90466238 23.8180458,2.18195423 C23.0953376,1.45924607 22.3703589,1.01473282 21.515494,0.682508966 C20.6885466,0.361121862 19.7435818,0.141393813 18.3598318,0.0782310292 C16.9732951,0.0149650386 16.530588,0 12.9999742,0 Z M13,2.36363636 C16.4642381,2.36363636 16.8745433,2.37682051 18.2426047,2.43923922 C19.507562,2.49697137 20.1945283,2.70832976 20.6517504,2.88595526 C21.2572943,3.12131292 21.6895386,3.4025061 22.1435163,3.85648373 C22.5974939,4.31046135 22.8786871,4.74270573 23.1139932,5.34824957 C23.2916702,5.80547174 23.5030286,6.492438 23.5607608,7.75734378 C23.6231795,9.12545674 23.6363636,9.53576187 23.6363636,13 C23.6363636,16.4642381 23.6231795,16.8745433 23.5607608,18.2426047 C23.5030286,19.507562 23.2916702,20.1945283 23.1139932,20.6517504 C22.8786871,21.2572943 22.5974939,21.6895386 22.1435163,22.1435163 C21.6895386,22.5974939 21.2572943,22.8786871 20.6517504,23.1139932 C20.1945283,23.2916702 19.507562,23.5030286 18.2426047,23.5607608 C16.8747493,23.6231795 16.4644441,23.6363636 13,23.6363636 C9.53555587,23.6363636 9.12525074,23.6231795 7.75739529,23.5607608 C6.492438,23.5030286 5.80547174,23.2916702 5.34830108,23.1139932 C4.74270573,22.8786871 4.31046135,22.5974939 3.85648373,22.1435163 C3.4025061,21.6895386 3.12131292,21.2572943 2.88600676,20.6517504 C2.70832976,20.1945283 2.49697137,19.507562 2.43923922,18.2426562 C2.37682051,16.8745433 2.36363636,16.4642381 2.36363636,13 C2.36363636,9.53576187 2.37682051,9.12545674 2.43923922,7.75739529 C2.49697137,6.492438 2.70832976,5.80547174 2.88600676,5.34824957 C3.12131292,4.74270573 3.4025061,4.31046135 3.85648373,3.85648373 C4.31046135,3.4025061 4.74270573,3.12131292 5.34830108,2.88595526 C5.80547174,2.70832976 6.492438,2.49697137 7.75734378,2.43923922 C9.12545674,2.37682051 9.53576187,2.36363636 13,2.36363636 Z M13,6.3030303 C9.30138216,6.3030303 6.3030303,9.30138216 6.3030303,13 C6.3030303,16.6986178 9.30138216,19.6969697 13,19.6969697 C16.6986178,19.6969697 19.6969697,16.6986178 19.6969697,13 C19.6969697,9.30138216 16.6986178,6.3030303 13,6.3030303 Z M13,17.3333333 C10.606795,17.3333333 8.66666667,15.393205 8.66666667,13 C8.66666667,10.606795 10.606795,8.66666667 13,8.66666667 C15.393205,8.66666667 17.3333333,10.606795 17.3333333,13 C17.3333333,15.393205 15.393205,17.3333333 13,17.3333333 Z M21.6666667,5.90906485 C21.6666667,6.77933985 20.9612102,7.48484848 20.0909352,7.48484848 C19.2206602,7.48484848 18.5151515,6.77933985 18.5151515,5.90906485 C18.5151515,5.03878984 19.2206602,4.33333333 20.0909352,4.33333333 C20.9612102,4.33333333 21.6666667,5.03878984 21.6666667,5.90906485 Z" id="instagram" fill="#1B75BC"></path>
    </g>
</svg>