<?xml version="1.0" encoding="UTF-8"?>
<svg width="32px" height="26px" viewBox="0 0 32 26" version="1.1" xmlns="http://www.w3.org/2000/svg" xmlns:xlink="http://www.w3.org/1999/xlink">
    <!-- Generator: Sketch 41.1 (35376) - http://www.bohemiancoding.com/sketch -->
    <title>icon_twitter_white</title>
    <desc>Created with Sketch.</desc>
    <defs></defs>
    <g id="Symbols" stroke="none" stroke-width="1" fill="none" fill-rule="evenodd">
        <g id="icon-twitterWhite" fill="#FAFAFA">
            <path d="M28.7483871,7.32539683 C28.7430726,15.997982 22.1392986,26 10.0645161,26 C6.35609644,26 2.90525095,24.9125877 0,23.0595238 C0.513594864,23.1111111 1.03582964,23.1424634 1.5483871,23.1626984 C4.64219358,23.1424634 7.47288527,22.0934416 9.70322581,20.3253968 C6.84633154,20.280128 4.42235578,18.3817153 3.56129032,15.7857143 C3.98748013,15.8511382 4.39867601,15.892408 4.8,15.8888889 C5.42074579,15.892408 6.00089999,15.8117879 6.55483871,15.6825397 C3.54812452,15.0590132 1.28542715,12.4059062 1.29032258,9.23412698 C1.28542715,9.19805586 1.28542715,9.17086256 1.29032258,9.13095238 C2.17117829,9.63442845 3.18332817,9.93003568 4.28387097,9.95634921 C2.49789502,8.78695706 1.33886661,6.77849145 1.34193548,4.48809524 C1.33886661,3.29806817 1.66270337,2.17066568 2.21935484,1.18650794 C5.46586534,5.17248677 10.303257,7.7849637 15.7419355,8.04761905 C15.6475235,7.57893442 15.5896041,7.07761782 15.5870968,6.5515873 C15.5896041,2.93847668 18.5287747,0 22.1419355,0 C24.0432796,0 25.7495025,0.796603913 26.9419355,2.06349206 C28.4422756,1.77844223 29.8473815,1.23201673 31.1225806,0.464285714 C30.6259337,2.01262458 29.5846642,3.29838809 28.2322581,4.12698413 C29.5568244,3.9519872 30.8224118,3.59943399 32,3.0952381 C31.1190488,4.39411837 30.0067399,5.54999385 28.7483871,6.5 C28.7360326,6.75641688 28.7430726,7.03954719 28.7483871,7.32539683 Z" id="icon_twitter_white"></path>
        </g>
    </g>
</svg>