<?xml version="1.0" encoding="utf-8"?>
<!-- Generator: Adobe Illustrator 20.1.0, SVG Export Plug-In . SVG Version: 6.00 Build 0)  -->
<svg version="1.1" id="Layer_1" xmlns="http://www.w3.org/2000/svg" xmlns:xlink="http://www.w3.org/1999/xlink" x="0px" y="0px"
	 viewBox="0 0 26 26" style="enable-background:new 0 0 26 26;" xml:space="preserve">
<style type="text/css">
	.st0{fill:#FAFAFA;}
</style>
<title>j</title>
<desc>Created with Sketch.</desc>
<g id="About">
	<g id="About_x2F_1200" transform="translate(-979.000000, -2579.000000)">
		<g id="Contributors" transform="translate(0.000000, 1777.000000)">
			<g id="Group-2">
				<g id="Group" transform="translate(124.000000, 202.000000)">
					<g id="contributor" transform="translate(680.000000, 381.000000)">
						<path id="j" class="st0" d="M175,222.2c0-0.9,0.3-1.6,0.9-2.2c0.6-0.6,1.4-0.9,2.2-0.9c0.9,0,1.6,0.3,2.2,0.9
							c0.6,0.6,0.9,1.4,0.9,2.2c0,0.9-0.3,1.6-0.9,2.2c-0.6,0.6-1.4,0.9-2.2,0.9s-1.6-0.3-2.2-0.9C175.3,223.8,175,223,175,222.2
							L175,222.2z M175.2,244.3v-16.5c0-0.2,0.1-0.3,0.2-0.5c0.1-0.1,0.3-0.2,0.5-0.2h4.6c0.2,0,0.3,0.1,0.5,0.2
							c0.1,0.1,0.2,0.3,0.2,0.5v16.5c0,0.2-0.1,0.3-0.2,0.5s-0.3,0.2-0.5,0.2h-4.6c-0.2,0-0.3-0.1-0.5-0.2S175.2,244.5,175.2,244.3
							L175.2,244.3z M183.7,244.3v-16.5c0-0.2,0.1-0.3,0.2-0.5s0.3-0.2,0.5-0.2h4.5c0.2,0,0.3,0,0.4,0.1c0.1,0.1,0.1,0.2,0.2,0.4
							c0,0.1,0,0.2,0.1,0.3v0.1c0,0.1,0,0.2,0,0.3c1.2-1.1,2.7-1.6,4.6-1.6c2.2,0,3.8,0.5,5.1,1.6c1.2,1.1,1.8,2.7,1.8,4.8v11.1
							c0,0.2-0.1,0.3-0.2,0.5s-0.3,0.2-0.5,0.2h-4.7c-0.2,0-0.3-0.1-0.5-0.2c-0.1-0.1-0.2-0.3-0.2-0.5v-10c0-0.9-0.2-1.5-0.5-2
							c-0.3-0.4-0.9-0.6-1.8-0.6c-1.1,0-1.9,0.3-2.3,1c-0.4,0.7-0.7,1.6-0.7,2.7v8.9c0,0.2-0.1,0.3-0.2,0.5
							c-0.1,0.1-0.3,0.2-0.5,0.2h-4.6c-0.2,0-0.3-0.1-0.5-0.2C183.7,244.7,183.7,244.5,183.7,244.3L183.7,244.3z"/>
					</g>
				</g>
			</g>
		</g>
	</g>
</g>
</svg>
